PathFileType	4	(X/Y/Z)	T1_P1_Vision_NoMovement_1_0-649.trc
DataRate	CameraRate	NumFrames	NumMarkers	Units	OrigDataRate	OrigDataStartFrame	OrigNumFrames
60	60	5	27	m	60	405	649
Frame#	Time	RHip			RKnee			RAnkle			RBigToe			RSmallToe			RHeel			LHip			LKnee			LAnkle			LBigToe			LSmallToe			LHeel			Neck			Head			Nose			RShoulder			RElbow			RWrist			RThumb			RIndex			RPinky			LShoulder			LElbow			LWrist			LThumb			LIndex			LPinky		
		X1	Y1	Z1	X2	Y2	Z2	X3	Y3	Z3	X4	Y4	Z4	X5	Y5	Z5	X6	Y6	Z6	X7	Y7	Z7	X8	Y8	Z8	X9	Y9	Z9	X10	Y10	Z10	X11	Y11	Z11	X12	Y12	Z12	X13	Y13	Z13	X14	Y14	Z14	X15	Y15	Z15	X16	Y16	Z16	X17	Y17	Z17	X18	Y18	Z18	X19	Y19	Z19	X20	Y20	Z20	X21	Y21	Z21	X22	Y22	Z22	X23	Y23	Z23	X24	Y24	Z24	X25	Y25	Z25	X26	Y26	Z26	X27	Y27	Z27
406	6.766666666666667	-68.02776457725646	3789.832237406636	-532.1762095939218	282.19738675382587	3972.076864487211	-525.8496753949356	639.5117347894862	4137.455966380206	-528.1249871197072	692.7292673666858	4018.597512595765	-455.7621531695109	687.8054892471188	3965.240946800347	-488.80528441055276	677.2399974963171	4167.721308565489	-528.29842269368	-108.10653933787621	3882.181212019941	-348.4748948469934	238.29258357692126	3988.7615410690637	-361.0524543233934	624.2359307061506	4253.197875957353	-457.75534945245283	668.4652886925928	3997.786279032135	-346.7936608739038	676.3690032154084	4122.320923973644	-343.50755914312924	670.5654533422716	4321.300789366184	-499.629314376476	-677.4215542138386	3666.8375651601023	-477.27732038724275	-921.6417718738662	3560.7957737148927	-435.77158793134583	-787.5458506258001	3555.7359586472935	-388.11747513957573	-557.596136285734	3639.7723235375684	-633.1506120719691	-293.793042062278	3718.2422243175897	-685.5073708489814	-28.015395943850162	3650.7216326629723	-599.8135796718848	85.15627030293257	3750.217991893335	-553.0024250820495	115.03769094684135	3769.1065941818533	-566.8363455910285	101.87084031063759	3735.1059453365738	-588.8719063355322	-610.2815921693391	3756.5690564302963	-357.51235388728145	-385.01735699752874	3984.4953322431343	-346.59640003193834	-124.94147315275308	3940.7841767218856	-242.65929038496148	11.883853133902567	3858.9725732184297	-261.0418143245713	26.265338702707417	3848.378188638	-204.37783781667918	0.7975887301914926	3975.6709055281476	-216.08554271772206
407	6.783333333333333	-67.98276638466913	3790.059703783041	-532.3325216127496	283.8746320170365	3975.76074490302	-526.4116296013555	640.0848495378048	4133.416876335708	-527.0283559369304	696.0374980485635	4028.106267910522	-460.48610193557784	688.1776492639008	3967.5308979960837	-494.3274625676652	680.0135489611907	4171.808339262891	-528.462283369583	-108.13013568734675	3884.0892482699655	-349.7412135724944	240.01494598721564	3990.186395740725	-361.74654874153873	623.38297331259	4246.935173159498	-452.0931428511321	669.9306066918099	3997.2551578126263	-349.0528822405599	679.6178549563693	4127.179226882983	-344.4938390596033	670.0817075382806	4313.6912332108805	-492.626652973408	-677.6239192840334	3668.301936848405	-478.4747409560167	-920.3167984898967	3555.3226081952694	-434.7219380032634	-788.4720488555287	3557.4306314712767	-389.5029163486405	-557.6430440177992	3640.586423585084	-634.4056454125141	-293.11869397452443	3722.637740827047	-687.7693354069431	-28.63620269032644	3650.5470010484387	-599.8457706097016	85.10451252258662	3750.29433778714	-553.0564472288977	112.38147203603197	3769.5051612012626	-566.9653517282479	99.0097263125493	3734.350612583818	-588.061836096045	-610.3105801686133	3756.559571928929	-357.56491318661944	-383.22857747551114	3985.242173350327	-346.8825760191921	-123.0723505722595	3942.0827585728166	-243.11501322225223	14.872260166507152	3866.537577490713	-266.91196590363074	26.667708865782792	3851.5059092018478	-205.0084593835181	2.6346883478241456	3977.0005612286027	-216.4894292972753
408	6.8	-67.80299708856128	3794.10371857652	-535.3830313627492	285.149961514336	3976.2086765178183	-526.4716431856878	640.266296435259	4132.792821725773	-526.284626958975	700.8158351491987	4039.54329841987	-465.6895521919108	689.3811116192924	3971.2954490401557	-501.0648430009025	680.9023081177902	4174.774108835906	-528.1221250034458	-107.89861492909353	3889.2219868946518	-353.30695163275624	240.83901575846642	3992.7039888466015	-363.22653724428915	621.3922592122738	4238.5699263391425	-444.8836101598266	670.523534470507	3996.7879600664214	-350.8915223325487	682.8862790837472	4136.345724512109	-346.12695408480283	668.5821757194446	4303.50089868885	-483.61403414198213	-678.0148429197042	3671.1339645162725	-480.73715259001347	-918.4350232559776	3547.420757385099	-432.85482406150084	-789.4211857292039	3561.997067515831	-392.9478761380785	-557.8667113784398	3642.7074763820992	-636.2052374344527	-293.6374441784755	3732.0558368986244	-693.1726472031564	-29.211562699399078	3650.1142378308505	-599.6044708181282	85.057228948981	3750.3590363679723	-553.1279741331243	110.27907500592481	3763.768861271396	-565.4915727593603	97.10757886429728	3734.0915660500077	-586.7015026483332	-610.3260896281643	3756.5497381915925	-357.6202861568207	-381.33847868715566	3986.3358161577034	-347.2250512203567	-121.72641861313701	3942.9422470097124	-243.4285914930168	18.036363645707848	3872.124772801034	-270.3394407318406	27.72603880123301	3859.715807146057	-206.12832803041516	4.000725966645775	3978.0336768662555	-216.8039149907222
409	6.816666666666666	-67.59031215741946	3799.3213305446325	-539.3183178652215	286.4635869795528	3975.6824750792516	-526.3240186370332	640.8967559170478	4134.026157834186	-525.4407766955281	703.6387606035566	4045.4959914469337	-468.1408686063284	690.3093951178066	3973.4104643792307	-504.8568621274873	679.3010513571985	4172.910355406473	-527.2968135873716	-107.66089352031582	3895.9528308735053	-358.03218182068133	240.8065679821086	3997.374458619889	-366.2236627532878	619.5185867654724	4233.358209107407	-440.589832211186	669.9474226699472	3996.6618075528313	-351.2862426093159	684.0302259269637	4146.7868734760705	-347.8027302405046	666.938841614926	4295.733037098768	-477.2512332850863	-678.3948829891544	3673.918014123515	-482.939669953352	-916.9699706329212	3541.178861167399	-431.3566686468654	-790.9591452748484	3567.847761459742	-397.43814611491007	-558.3226454706368	3647.0465015134273	-639.7587877241799	-294.01812118898823	3741.768905720591	-699.5748401646551	-29.241147741825735	3649.5878744433767	-598.7506690734751	85.05204203308062	3750.400600547724	-553.2006598320739	110.62615451853239	3755.62591463842	-563.3946389134684	97.31895698083501	3735.470869111279	-585.5113308228579	-610.3304270684235	3756.4706726115905	-357.6165692502183	-380.10649469795743	3987.2884243410504	-347.4411193700789	-121.2746329541831	3943.1446156369157	-243.5151201607294	20.328945839129	3873.5593952591835	-269.76373149925195	29.405061420507227	3870.1050023790585	-207.23972656343847	4.7799074714608185	3978.5805320124773	-216.94034972760784
410	6.833333333333333	-67.43253826457138	3803.272367347808	-542.297647799079	287.6678716929372	3975.3029696517765	-525.9768062694498	642.2500565802968	4138.809268723345	-525.7698122424326	702.2104473978463	4040.106978584864	-465.7616170525731	689.9497415517912	3971.5545169668117	-503.39034701767355	677.0840135010862	4168.524717768397	-526.4213985122991	-107.52877040040691	3901.027105582574	-361.60234267407037	240.06961049261244	4001.5752865771888	-369.13928393997446	618.5811369943187	4233.806865111721	-440.991196263344	668.5316089041537	3996.7843833967654	-349.9667836365078	681.7232318699603	4152.684703489622	-348.58959157941916	665.9127163830573	4293.6227174926935	-476.07798927521725	-678.5853460168702	3675.3808185600615	-484.07875057728523	-916.385637962068	3538.6522925178106	-430.7738360262626	-792.3461548270739	3572.220107886076	-400.840974019798	-558.7489748997509	3651.276562346153	-643.2763508704313	-293.7005721837852	3747.912489206896	-704.0879009895837	-28.82170054338748	3649.1173296926236	-597.099380506683	85.07816840314382	3750.376758458947	-553.2578382942343	112.41761771190113	3752.056893712471	-562.5207514800443	98.82515691439626	3738.860477059604	-585.2587386091873	-610.3220619070386	3756.266994434618	-357.508455216361	-380.47275191790163	3987.6100471869295	-347.5447215301689	-121.82164901307961	3942.722785503516	-243.36816034883873	20.757452013375353	3873.4630944476958	-266.8525406846987	30.74061986992026	3877.820369335901	-207.64690391774798	5.009362419444514	3978.7109319679907	-216.92356091183672
